<?xml version="1.0" standalone="no"?>
<!DOCTYPE svg PUBLIC "-//W3C//DTD SVG 20010904//EN"
 "http://www.w3.org/TR/2001/REC-SVG-20010904/DTD/svg10.dtd">
<svg version="1.0" xmlns="http://www.w3.org/2000/svg"
 width="600.000000pt" height="600.000000pt" viewBox="0 0 600.000000 600.000000"
 preserveAspectRatio="xMidYMid meet">

<g transform="translate(0.000000,600.000000) scale(0.100000,-0.100000)"
fill="#000000" stroke="none">
<path d="M3220 5899 c-74 -15 -129 -57 -203 -154 -141 -188 -247 -440 -279
-664 -6 -45 -14 -81 -17 -81 -3 0 -17 16 -30 36 -13 19 -60 68 -103 109 -141
133 -320 201 -512 193 -88 -3 -107 -7 -148 -31 -138 -81 -185 -246 -109 -382
51 -90 151 -145 267 -145 62 0 110 -19 145 -57 31 -33 63 -82 58 -87 -2 -2
-53 -29 -114 -60 -60 -31 -153 -87 -205 -124 -122 -85 -335 -298 -422 -422
-122 -173 -218 -379 -271 -585 -56 -217 -57 -232 -57 -1399 0 -1027 -1 -1074
-18 -1089 -16 -15 -45 -17 -196 -17 -194 0 -222 -6 -245 -56 -26 -58 -101
-299 -101 -326 0 -35 189 -415 220 -443 22 -20 36 -20 1974 -20 l1951 0 245
98 c165 66 252 106 268 123 21 24 22 31 22 250 l0 225 -25 24 c-24 25 -27 25
-190 25 -123 0 -167 3 -170 12 -3 7 -23 121 -44 252 -42 252 -53 285 -102 296
l-24 6 -6 904 c-6 977 -5 949 -63 1160 -83 306 -228 552 -461 785 -146 147
-266 236 -430 321 -60 31 -112 58 -114 60 -6 5 37 69 66 95 38 35 74 47 165
52 154 10 257 105 274 250 13 108 -51 227 -150 280 -36 20 -55 22 -171 21
-111 0 -141 -4 -207 -26 -129 -43 -258 -127 -334 -218 -15 -17 -28 -29 -31
-27 -5 6 39 121 72 187 15 30 51 89 79 130 70 100 86 144 86 234 0 61 -5 82
-31 134 -58 118 -179 177 -309 151z m89 -189 c5 0 20 -11 35 -25 21 -19 26
-33 26 -71 0 -42 -8 -59 -64 -143 -125 -186 -196 -386 -212 -600 l-7 -91 -88
0 -89 0 0 88 c0 178 60 416 146 582 91 174 185 281 232 265 8 -3 17 -5 21 -5z
m-1034 -591 c131 -48 212 -119 313 -270 l63 -94 -58 -17 c-115 -35 -114 -35
-148 19 -83 135 -183 199 -328 212 -99 9 -122 20 -136 64 -14 41 -3 77 31 102
33 24 181 15 263 -16z m1713 15 c34 -23 45 -60 31 -101 -14 -42 -56 -63 -127
-63 -59 0 -143 -24 -191 -54 -45 -29 -107 -96 -146 -159 -34 -54 -33 -54 -148
-19 l-58 17 71 105 c77 113 117 155 195 205 49 32 146 70 195 78 67 11 156 6
178 -9z m-1599 -1398 c36 -19 51 -55 51 -121 l0 -55 -95 0 -95 0 0 58 c0 66
15 101 50 119 33 17 55 16 89 -1z m1335 -16 c16 -15 21 -36 24 -90 l4 -70 -96
0 -96 0 0 58 c1 64 15 98 51 119 31 17 87 9 113 -17z m-714 -1017 c0 -5 -97
-104 -214 -221 l-214 -213 -27 17 -27 18 205 203 c190 189 207 203 241 203 20
0 36 -3 36 -7z m-130 -11 c0 -4 -83 -90 -186 -192 -175 -175 -186 -184 -200
-166 -7 11 -14 24 -14 28 0 18 318 326 341 331 41 7 59 7 59 -1z m232 -5 c-28
-33 -456 -457 -461 -457 -4 0 -16 7 -27 15 -18 13 -7 26 201 234 211 212 222
221 259 221 30 0 36 -3 28 -13z m110 -2 c3 -3 -446 -459 -475 -483 -2 -1 -17
3 -34 8 l-29 11 230 233 c212 215 234 234 267 235 20 0 38 -1 41 -4z m-557
-97 c-50 -50 -101 -101 -114 -112 -13 -11 -37 -35 -54 -53 -33 -36 -47 -35
-47 5 0 43 157 194 235 226 33 14 62 25 65 26 2 0 -36 -41 -85 -92z m635 72
c12 -8 -32 -57 -220 -245 -222 -223 -237 -235 -265 -229 -16 4 -32 8 -34 10
-2 2 102 109 230 238 231 232 253 249 289 226z m75 -30 c25 -10 20 -15 -199
-235 -209 -209 -228 -225 -261 -225 -19 0 -35 3 -35 7 0 10 452 463 462 463 4
0 18 -4 33 -10z m47 -105 c-26 -27 -117 -118 -202 -202 -143 -140 -158 -153
-200 -159 l-45 -6 224 225 c222 223 225 225 247 209 l22 -17 -46 -50z m89 4
c9 -18 6 -26 -18 -51 -24 -25 -278 -278 -287 -285 -1 -2 -24 -7 -50 -12 l-48
-9 29 31 c88 95 345 347 353 347 5 0 14 -9 21 -21z m39 -88 c0 -36 -175 -203
-230 -220 -23 -7 -49 -15 -59 -18 -9 -3 49 60 129 140 143 143 159 153 160 98z"/>
</g>
</svg>
